<?xml version="1.0" standalone="no"?>
<!DOCTYPE svg PUBLIC "-//W3C//DTD SVG 20010904//EN"
 "http://www.w3.org/TR/2001/REC-SVG-20010904/DTD/svg10.dtd">
<svg version="1.0" xmlns="http://www.w3.org/2000/svg"
 width="475.000000pt" height="528.000000pt" viewBox="0 0 475.000000 528.000000"
 preserveAspectRatio="xMidYMid meet">

<g transform="translate(0.000000,528.000000) scale(0.100000,-0.100000)"
fill="#000000" stroke="none">
<path d="M3605 4780 c-255 -29 -481 -219 -633 -532 -127 -261 -187 -549 -186
-893 1 -359 69 -658 211 -927 128 -243 331 -426 520 -470 l52 -13 3 -246 c3
-244 3 -248 26 -272 32 -34 64 -40 107 -23 60 25 66 53 65 313 l-1 227 48 12
c369 95 663 562 724 1152 17 169 7 508 -20 652 -64 339 -192 619 -364 798 -50
51 -156 131 -212 160 -99 50 -232 74 -340 62z m183 -208 c276 -87 506 -491
563 -991 16 -147 7 -436 -20 -576 -81 -432 -274 -745 -523 -850 l-38 -15 0
194 0 195 116 102 c63 56 120 113 125 127 12 32 -5 87 -34 107 -41 29 -90 19
-150 -30 -31 -25 -57 -45 -59 -45 -2 0 -2 69 -1 152 l2 153 178 153 c109 94
183 165 191 183 33 79 -55 158 -131 118 -11 -7 -69 -53 -127 -102 l-105 -91
-5 308 -5 308 -33 29 c-35 31 -66 36 -107 17 -52 -24 -55 -41 -55 -368 l0
-301 -97 83 c-141 120 -152 128 -188 128 -39 0 -80 -30 -89 -66 -15 -60 -2
-77 190 -240 l184 -158 0 -154 c0 -173 8 -163 -74 -95 -68 57 -157 35 -172
-41 -9 -50 8 -72 134 -181 l112 -97 0 -194 0 -193 -42 15 c-96 34 -228 151
-311 277 -88 133 -170 351 -210 555 -19 102 -22 149 -22 372 0 224 3 268 22
365 64 314 163 530 316 692 114 120 216 172 339 173 37 0 92 -8 126 -18z"/>
<path d="M645 4256 c-72 -32 -115 -100 -115 -183 0 -61 25 -109 78 -150 73
-56 168 -53 238 9 82 72 93 180 27 267 -47 62 -155 89 -228 57z"/>
<path d="M1395 4253 c-153 -80 -152 -280 2 -350 62 -29 107 -27 174 7 102 52
128 200 52 291 -53 62 -161 87 -228 52z"/>
<path d="M2140 4248 c-101 -51 -136 -171 -78 -268 55 -95 183 -125 271 -64 71
49 106 152 78 227 -15 39 -71 97 -109 112 -50 21 -111 18 -162 -7z"/>
<path d="M2044 3415 c-326 -33 -656 -114 -895 -221 l-58 -26 -28 19 c-38 27
-146 68 -218 84 -75 16 -306 16 -402 1 -99 -17 -143 -33 -164 -62 -53 -72 -65
-470 -20 -615 13 -38 36 -94 52 -123 l29 -53 -24 -82 c-76 -248 -76 -542 0
-787 l26 -87 -24 -39 c-61 -98 -88 -222 -88 -407 0 -141 20 -288 45 -338 19
-35 74 -53 217 -70 211 -24 412 4 543 75 l60 33 65 -29 c330 -148 766 -229
1230 -229 462 0 900 81 1230 229 l65 29 60 -33 c130 -71 334 -99 543 -75 143
17 198 35 217 70 43 83 60 398 30 549 -9 42 -34 114 -56 159 l-40 83 26 81
c51 164 73 418 40 466 -24 35 -77 48 -118 28 -44 -21 -57 -51 -57 -133 0 -103
-27 -244 -65 -347 -43 -114 -44 -144 -6 -187 78 -90 105 -198 99 -401 -3 -89
-9 -152 -16 -159 -6 -6 -57 -16 -112 -21 -183 -19 -353 15 -441 89 -57 47 -81
51 -143 24 -289 -129 -510 -192 -830 -237 -174 -25 -680 -25 -856 0 -317 45
-537 108 -826 237 -62 27 -86 23 -143 -24 -88 -74 -252 -107 -436 -90 -58 6
-111 16 -117 22 -7 7 -13 68 -16 159 -6 203 21 311 99 401 38 43 37 73 -6 187
-88 237 -84 567 10 780 36 83 33 117 -15 180 -72 94 -84 143 -85 352 0 136 3
185 13 195 10 10 60 13 200 13 172 0 192 -2 244 -23 32 -13 81 -41 110 -63 30
-22 64 -39 79 -39 15 0 71 20 126 44 329 146 665 217 1103 233 185 6 185 6
212 34 39 39 38 90 -1 130 l-29 29 -154 -1 c-84 -1 -212 -7 -284 -14z"/>
<path d="M1775 2875 c-177 -46 -257 -75 -410 -151 -272 -134 -472 -318 -565
-517 -46 -98 -48 -127 -12 -168 24 -27 37 -34 70 -34 52 0 68 16 108 102 124
273 469 496 925 599 122 27 153 45 164 95 7 32 -16 83 -44 99 -34 17 -101 10
-236 -25z"/>
</g>
</svg>
