<svg height="512" viewBox="0 0 64 64" width="512" xmlns="http://www.w3.org/2000/svg"><g id="_11" data-name="11"><path d="m44 45h-22a1 1 0 0 1 0-2h21v-24a3 3 0 0 0 -3-3h-33a1 1 0 0 1 0-2h33a5 5 0 0 1 5 5v25a1 1 0 0 1 -1 1z"/><path d="m61 45h-4a1 1 0 0 1 0-2h3v-9.66l-6.49-8.34h-8.51v18h2a1 1 0 0 1 0 2h-3a1 1 0 0 1 -1-1v-20a1 1 0 0 1 1-1h10a1 1 0 0 1 .79.39l7 9a1 1 0 0 1 .21.61v11a1 1 0 0 1 -1 1z"/><path d="m17 50a6 6 0 1 1 6-6 6 6 0 0 1 -6 6zm0-10a4 4 0 1 0 4 4 4 4 0 0 0 -4-4z"/><path d="m52 50a6 6 0 1 1 6-6 6 6 0 0 1 -6 6zm0-10a4 4 0 1 0 4 4 4 4 0 0 0 -4-4z"/><path d="m44 36h-38a1 1 0 0 1 0-2h38a1 1 0 0 1 0 2z"/><path d="m57 35h-9a1 1 0 0 1 -1-1v-6a1 1 0 0 1 1-1h4a1 1 0 0 1 .77.36l5 6a1 1 0 0 1 -.77 1.64zm-8-2h5.86l-3.33-4h-2.53z"/><path d="m29 22h-26a1 1 0 0 1 0-2h26a1 1 0 0 1 0 2z"/><path d="m21 29h-10a1 1 0 0 1 0-2h10a1 1 0 0 1 0 2z"/><path d="m6 45h-2a1 1 0 0 1 0-2h2a1 1 0 0 1 0 2z"/></g></svg>